<?xml version="1.0" encoding="utf-8"?>
<!-- Generator: Adobe Illustrator 21.0.0, SVG Export Plug-In . SVG Version: 6.00 Build 0)  -->
<svg version="1.1" id="Layer_1" xmlns="http://www.w3.org/2000/svg" xmlns:xlink="http://www.w3.org/1999/xlink" x="0px" y="0px"
	 viewBox="0 0 428 84" style="enable-background:new 0 0 428 84;" xml:space="preserve">
<metadata><?xpacket begin="﻿" id="W5M0MpCehiHzreSzNTczkc9d"?>
<x:xmpmeta xmlns:x="adobe:ns:meta/" x:xmptk="Adobe XMP Core 5.6-c137 79.159768, 2016/08/11-13:24:42        ">
   <rdf:RDF xmlns:rdf="http://www.w3.org/1999/02/22-rdf-syntax-ns#">
      <rdf:Description rdf:about=""/>
   </rdf:RDF>
</x:xmpmeta>
                                                                                                    
                                                                                                    
                                                                                                    
                                                                                                    
                                                                                                    
                                                                                                    
                                                                                                    
                                                                                                    
                                                                                                    
                                                                                                    
                                                                                                    
                                                                                                    
                                                                                                    
                                                                                                    
                                                                                                    
                                                                                                    
                                                                                                    
                                                                                                    
                                                                                                    
                                                                                                    
                           
<?xpacket end="w"?></metadata>
<style type="text/css">
	.st0{fill:#231F20;}
	.st1{fill:#FFCA05;}
</style>
<path class="st0" d="M0,0.5h12.6c7,0,14.1,0,19.6,4.9c3.2,2.8,5.4,7.5,5.4,11.9c0,8-5.2,11-7.1,12.1c4.2,1.5,10.9,5.1,10.9,15.8
	c0,7.6-4,12.4-7.9,15.1C28.7,63.6,21.2,64,17.1,64h-17V0.5H0z M11.8,25.2h3.9c2.8,0,10.1,0,10.1-6.9c0-3.8-2.4-6.9-9.1-6.9h-4.9
	V25.2z M11.8,53.1h5.9c2.3,0,11.9,0,11.9-8.3c0-2.6-1.3-8.5-11.6-8.5h-6.2L11.8,53.1L11.8,53.1z"/>
<path class="st0" d="M93.8,64.1H83.3v-5.9c-3.6,4.3-10.7,7.5-16.7,7.5c-12.3,0-23.2-9.8-23.2-25.7c0-14.6,10.7-25.2,23.9-25.2
	c9.7,0,15.5,7,15.8,7.7h0.2v-6h10.5V64.1z M69,25.2c-9.4,0-14.2,8.1-14.2,15.2c0,8.1,6,14.7,14.2,14.7c7.9,0,13.9-6.2,13.9-15
	C82.9,30.2,75.8,25.2,69,25.2"/>
<path class="st0" d="M100.5,16.4H111v4.2h0.2c2.1-3.1,4.3-5.8,10.2-5.8h0.9v11.1C112,26.3,112,34.5,112,37.3v26.8h-11.4L100.5,16.4
	L100.5,16.4z"/>
<polygon class="st0" points="129.1,0.5 129.1,64.1 140.5,64.1 140.5,41.8 140.8,41.8 156.9,64.1 171.3,64.1 151.9,39.8 171,16.4 
	157.9,16.4 140.8,38.9 140.5,38.9 140.5,0.5 "/>
<rect x="171.1" y="16.4" class="st0" width="11.4" height="47.7"/>
<path class="st0" d="M189.3,16.4h10.6v4.1c1.9-1.8,5.8-5.8,13.1-5.8c4.1,0,10.4,1.8,14.4,6.6c4.4,5.2,4.4,13.2,4.4,16.9V64h-11.4
	V40.4c0-4,0-15.3-9.6-15.3c-2.1,0-5.8,1-7.8,4.2c-2.1,2.9-2.1,7.9-2.1,11.9v22.7h-11.4V16.4H189.3z"/>
<path class="st0" d="M285.1,16.4v39c0,23-17,28.2-26,28.2c-9.8,0-19.9-5.2-24-15.8h13.1c4.5,5.3,10,5.3,11.8,5.3
	c6.4,0,14-4.5,14.6-14.9l-0.2-0.2c-1.5,2.1-5.9,7.7-15.6,7.7c-11.6,0-24.4-9.9-24.4-25.9c0-15,12.2-25,24.3-25
	c9.8,0,13.9,5.6,15.2,7.5h0.2v-5.9H285.1z M259.6,25.2c-6.9,0-13.9,5.6-13.9,14.6c0,9.7,7.3,15.3,14.3,15.3
	c6.9,0,13.7-5.8,13.7-15.4C273.6,33,268.1,25.2,259.6,25.2"/>
<path class="st0" d="M291.8,0.5h12.5c7,0,14.1,0,19.6,4.9c3.2,2.8,5.4,7.5,5.4,11.9c0,8-5.2,11-7.1,12.1c4.2,1.5,10.9,5.1,10.9,15.8
	c0,7.6-4,12.4-7.9,15.1c-4.8,3.4-12.3,3.8-16.4,3.8h-17V0.5z M303.6,25.2h3.9c2.8,0,10.1,0,10.1-6.9c0-3.8-2.4-6.9-9.1-6.9h-4.9
	V25.2z M303.6,53.1h5.9c2.3,0,11.9,0,11.9-8.3c0-2.6-1.3-8.5-11.6-8.5h-6.2L303.6,53.1L303.6,53.1z"/>
<rect x="337.5" y="16.4" class="st0" width="11.4" height="47.7"/>
<path class="st0" d="M355.6,16.4H366v4.2h0.2c2.1-3.1,4.3-5.8,10.2-5.8h0.9v11.1C367,26.3,367,34.5,367,37.3v26.8h-11.4L355.6,16.4
	L355.6,16.4z"/>
<path class="st0" d="M428.5,64.1H418v-5.8h-0.2c-2.1,3.4-7.1,7.4-15.2,7.4c-12.1,0-24.3-10-24.3-25.4c0-16.1,12.9-25.5,24.3-25.5
	c7,0,11.1,2.3,14.4,5.8V0.5h11.4L428.5,64.1L428.5,64.1z M403.8,55.1c8.6,0,14.1-7.7,14.1-15c0-7.8-6-15-14.1-15
	c-8.5,0-14.1,7.9-14.1,14.6C389.6,48.6,396.2,55.1,403.8,55.1"/>
<g>
	<rect x="0" y="77.6" class="st1" width="40.2" height="5.9"/>
</g>
</svg>
